<?xml version="1.0" standalone="no"?>
<!DOCTYPE svg PUBLIC "-//W3C//DTD SVG 1.1//EN" "http://www.w3.org/Graphics/SVG/1.1/DTD/svg11.dtd" >
<svg xmlns="http://www.w3.org/2000/svg" xmlns:xlink="http://www.w3.org/1999/xlink" version="1.1">
<metadata>
Created by FontForge 20201107 at Thu May 26 19:50:12 2022
 By Tanguy Vanlaeys
Copyright 2021 The Relief SingleLine Project Authors (https://github.com/isdat-type/Relief-SingleLine)
</metadata>
<defs>
<font id="ReliefSingleLineOrnament-Regular" horiz-adv-x="680" >
  <font-face 
    font-family="Relief SingleLine Ornament"
    font-weight="400"
    font-stretch="normal"
    units-per-em="1000"
    panose-1="0 0 0 0 0 0 0 0 0 0"
    ascent="800"
    descent="-200"
    x-height="278"
    cap-height="680"
    bbox="-40 -40 719 719"
    underline-thickness="40"
    underline-position="-200"
    unicode-range="U+000D-00A0"
  />
<missing-glyph 
d="M535 680l-390 -680M145 679v-679h390v680h-390" />
    <glyph glyph-name=".notdef" 
d="M535 680l-390 -680M145 679v-679h390v680h-390" />
    <glyph glyph-name=".null" 
 />
    <glyph glyph-name="A" unicode="A" 
d="M680 0l-680 680" />
    <glyph glyph-name="A.ss01" 
d="M0 0l680 680" />
    <glyph glyph-name="B" unicode="B" 
d="M680 0v680h-680" />
    <glyph glyph-name="B.ss01" 
d="M680 680h-680v-680" />
    <glyph glyph-name="B.ss02" 
d="M0 680v-680h680" />
    <glyph glyph-name="B.ss03" 
d="M0 0h680v680" />
    <glyph glyph-name="C" unicode="C" 
d="M680 0l-680 680M340 0l-340 340M680 340l-340 340" />
    <glyph glyph-name="C.ss01" 
d="M0 0l680 680M340 0l340 340M0 340l340 340" />
    <glyph glyph-name="CR" unicode="&#xd;" 
 />
    <glyph glyph-name="D" unicode="D" 
d="M680 0v680h-680M340 0v340h-340" />
    <glyph glyph-name="D.ss01" 
d="M680 680h-680v-680M680 340h-340v-340" />
    <glyph glyph-name="D.ss02" 
d="M0 680v-680h680M340 680v-340h340" />
    <glyph glyph-name="D.ss03" 
d="M0 0h680v680M0 340h340v340" />
    <glyph glyph-name="E" unicode="E" 
d="M680 0l-680 680M170 0l-170 170M340 0l-340 340M510 0l-510 510M680 170l-510 510M680 340l-340 340M680 510l-170 170" />
    <glyph glyph-name="E.ss01" 
d="M0 0l680 680M510 0l170 170M340 0l340 340M170 0l510 510M0 170l510 510M0 340l340 340M0 510l170 170" />
    <glyph glyph-name="F" unicode="F" 
d="M680 0v680h-680M170 0v170h-170M340 0v340h-340M510 0v510h-510" />
    <glyph glyph-name="F.ss01" 
d="M680 680h-680v-680M680 170h-170v-170M680 340h-340v-340M680 510h-510v-510" />
    <glyph glyph-name="F.ss02" 
d="M0 680v-680h680M510 680v-170h170M340 680v-340h340M170 680v-510h510" />
    <glyph glyph-name="F.ss03" 
d="M0 0h680v680M0 510h170v170M0 340h340v340M0 170h510v510" />
    <glyph glyph-name="G" unicode="G" 
d="M340 0l340 340l-340 340M0 0l340 340l-340 340" />
    <glyph glyph-name="G.ss01" 
d="M680 340l-340 340l-340 -340M680 0l-340 340l-340 -340" />
    <glyph glyph-name="G.ss02" 
d="M340 680l-340 -340l340 -340M680 680l-340 -340l340 -340" />
    <glyph glyph-name="G.ss03" 
d="M0 340l340 -340l340 340M0 680l340 -340l340 340" />
    <glyph glyph-name="H" unicode="H" 
d="M340 680l-340 -340l340 -340l340 340l-339 339" />
    <glyph glyph-name="H.ss01" 
d="M680 680l-680 -680M0 680l680 -680" />
    <glyph glyph-name="I" unicode="I" 
d="M340 0l340 340l-340 340M0 510l170 -170l-170 -170M0 0l340 340l-340 340M170 0l340 340l-340 340M510 0l170 170M680 510l-170 170" />
    <glyph glyph-name="I.ss01" 
d="M680 340l-340 340l-340 -340M170 0l170 170l170 -170M680 0l-340 340l-340 -340M680 170l-340 340l-340 -340M680 510l-170 170M170 680l-170 -170" />
    <glyph glyph-name="I.ss02" 
d="M340 680l-340 -340l340 -340M680 170l-170 170l170 170M680 680l-340 -340l340 -340M510 680l-340 -340l340 -340M170 680l-170 -170M0 170l170 -170" />
    <glyph glyph-name="I.ss03" 
d="M0 340l340 -340l340 340M510 680l-170 -170l-170 170M0 680l340 -340l340 340M0 510l340 -340l340 340M0 170l170 -170M510 0l170 170" />
    <glyph glyph-name="J" unicode="J" 
d="M340 680l-340 -340l340 -340l340 340l-339 339M170 0l-170 170M510 0l170 170M0 510l170 170M341 509l169 -169l-170 -170l-170 170l170 170M680 510l-170 170" />
    <glyph glyph-name="J.ss01" 
d="M680 680l-680 -680M514 0l-174 174l-174 -174M0 166l174 174l-174 174M0 680l680 -680M166 680l174 -174l174 174M680 166l-174 174l174 174" />
    <glyph glyph-name="K" unicode="K" 
d="M680 0c-170 0 -340 129 -340 340s170 340 340 340M0 0c170 0 340 129 340 340s-170 340 -340 340" />
    <glyph glyph-name="K.ss01" 
d="M680 680c0 -170 -129 -340 -340 -340s-340 170 -340 340M680 0c0 170 -129 340 -340 340s-340 -170 -340 -340" />
    <glyph glyph-name="L" unicode="L" 
d="M339 680c-169 0 -339 -129 -339 -340s170 -340 340 -340s340 129 340 340s-170 340 -339 340" />
    <glyph glyph-name="M" unicode="M" 
d="M340 0c170 0 340 129 340 340s-170 340 -340 340M0 0c170 0 340 129 340 340s-170 340 -340 340" />
    <glyph glyph-name="M.ss01" 
d="M680 340c0 170 -129 340 -340 340s-340 -170 -340 -340M680 0c0 170 -129 340 -340 340s-340 -170 -340 -340" />
    <glyph glyph-name="M.ss02" 
d="M340 680c-170 0 -340 -129 -340 -340s170 -340 340 -340M680 680c-170 0 -340 -129 -340 -340s170 -340 340 -340" />
    <glyph glyph-name="M.ss03" 
d="M0 340c0 -170 129 -340 340 -340s340 170 340 340M0 680c0 -170 129 -340 340 -340s340 170 340 340" />
    <glyph glyph-name="N" unicode="N" 
d="M680 0c0 170 -129 340 -340 340s-340 -170 -340 -340c170 0 340 129 340 340s-170 340 -340 340" />
    <glyph glyph-name="N.ss01" 
d="M680 680c-170 0 -340 -129 -340 -340s170 -340 340 -340c0 170 -129 340 -340 340s-340 -170 -340 -340" />
    <glyph glyph-name="N.ss02" 
d="M0 680c0 -170 129 -340 340 -340s340 170 340 340c-170 0 -340 -129 -340 -340s170 -340 340 -340" />
    <glyph glyph-name="N.ss03" 
d="M0 0c170 0 340 129 340 340s-170 340 -340 340c0 -170 129 -340 340 -340s340 170 340 340" />
    <glyph glyph-name="O" unicode="O" 
d="M680 0c-170 0 -340 129 -340 340s170 340 340 340M0 510c84 0 173 -63 173 -170s-89 -170 -173 -170M0 0c170 0 340 129 340 340s-170 340 -340 340M680 510c-84 0 -173 -63 -173 -170s89 -170 173 -170" />
    <glyph glyph-name="O.ss01" 
d="M680 680c0 -170 -129 -340 -340 -340s-340 170 -340 340M170 0c0 84 63 173 170 173s170 -89 170 -173M680 0c0 170 -129 340 -340 340s-340 -170 -340 -340M170 680c0 -84 63 -173 170 -173s170 89 170 173" />
    <glyph glyph-name="P" unicode="P" 
d="M340 0c170 0 340 129 340 340s-170 340 -340 340M0 510c84 0 173 -63 173 -170s-89 -170 -173 -170M0 0c170 0 340 129 340 340s-170 340 -340 340M340 510c84 0 173 -63 173 -170s-89 -170 -173 -170" />
    <glyph glyph-name="P.ss01" 
d="M680 340c0 170 -129 340 -340 340s-340 -170 -340 -340M170 0c0 84 63 173 170 173s170 -89 170 -173M680 0c0 170 -129 340 -340 340s-340 -170 -340 -340M170 340c0 84 63 173 170 173s170 -89 170 -173" />
    <glyph glyph-name="P.ss02" 
d="M340 680c-170 0 -340 -129 -340 -340s170 -340 340 -340M680 170c-84 0 -173 63 -173 170s89 170 173 170M680 680c-170 0 -340 -129 -340 -340s170 -340 340 -340M340 170c-84 0 -173 63 -173 170s89 170 173 170" />
    <glyph glyph-name="P.ss03" 
d="M0 340c0 -170 129 -340 340 -340s340 170 340 340M510 680c0 -84 -63 -173 -170 -173s-170 89 -170 173M0 680c0 -170 129 -340 340 -340s340 170 340 340M510 340c0 -84 -63 -173 -170 -173s-170 89 -170 173" />
    <glyph glyph-name="Q" unicode="Q" 
d="M339 680c-169 0 -339 -129 -339 -340s170 -340 340 -340s340 129 340 340s-170 340 -339 340M341 510c83 0 172 -63 172 -170s-89 -170 -173 -170s-173 63 -173 170s89 170 172 170" />
    <glyph glyph-name="R" unicode="R" 
d="M680 0c0 170 -129 340 -340 340c0 211 -170 340 -340 340M173 0c0 107 -89 170 -173 170M510 0c0 84 -63 173 -170 173s-167 83 -167 167c0 107 -89 170 -173 170" />
    <glyph glyph-name="R.ss01" 
d="M680 680c-170 0 -340 -129 -340 -340c-211 0 -340 -170 -340 -340M680 173c-107 0 -170 -89 -170 -173M680 510c-84 0 -173 -63 -173 -170s-83 -167 -167 -167c-107 0 -170 -89 -170 -173" />
    <glyph glyph-name="R.ss02" 
d="M0 680c0 -170 129 -340 340 -340c0 -211 170 -340 340 -340M507 680c0 -107 89 -170 173 -170M170 680c0 -84 63 -173 170 -173s167 -83 167 -167c0 -107 89 -170 173 -170" />
    <glyph glyph-name="R.ss03" 
d="M0 0c170 0 340 129 340 340c211 0 340 170 340 340M0 507c107 0 170 89 170 173M0 170c84 0 173 63 173 170s83 167 167 167c107 0 170 89 170 173" />
    <glyph glyph-name="S" unicode="S" 
d="M0 0l680 340l-680 340" />
    <glyph glyph-name="S.ss01" 
d="M680 0l-340 680l-340 -680" />
    <glyph glyph-name="S.ss02" 
d="M680 680l-680 -340l680 -340" />
    <glyph glyph-name="S.ss03" 
d="M0 680l340 -680l340 680" />
    <glyph glyph-name="T" unicode="T" 
d="M0 0c170 0 680 2 680 340s-510 340 -680 340" />
    <glyph glyph-name="T.ss01" 
d="M680 0c0 170 -2 680 -340 680s-340 -510 -340 -680" />
    <glyph glyph-name="T.ss02" 
d="M680 680c-170 0 -680 -2 -680 -340s510 -340 680 -340" />
    <glyph glyph-name="T.ss03" 
d="M0 680c0 -170 2 -680 340 -680s340 510 340 680" />
    <glyph glyph-name="U" unicode="U" 
d="M680 0v680M170 0v680M340 0v680M510 0v680" />
    <glyph glyph-name="U.ss01" 
d="M0 680v-680M510 680v-680M340 680v-680M170 680v-680" />
    <glyph glyph-name="U.ss02" 
d="M0 170h680M0 680h680M0 510h680M0 340h680" />
    <glyph glyph-name="U.ss03" 
d="M0 0h680M0 510h680M0 340h680M0 170h680" />
    <glyph glyph-name="V" unicode="V" 
d="M680 0v680M340 0v680" />
    <glyph glyph-name="V.ss01" 
d="M0 680v-680M340 680v-680" />
    <glyph glyph-name="V.ss02" 
d="M0 340h680M0 680h680" />
    <glyph glyph-name="V.ss03" 
d="M0 0h680M0 340h680" />
    <glyph glyph-name="W" unicode="W" 
d="M340 0v680h-2" />
    <glyph glyph-name="W.ss01" 
d="M0 340h680v2" />
    <glyph glyph-name="X" unicode="X" 
d="M680 0c0 423 -350 680 -680 680M171 0c0 107 -86 170 -170 170M341 0c0 211 -175 340 -340 340M511 0c0 318 -263 511 -511 511" />
    <glyph glyph-name="X.ss01" 
d="M680 680c-423 0 -680 -350 -680 -680M680 171c-107 0 -170 -86 -170 -170M680 341c-211 0 -340 -175 -340 -340M680 511c-318 0 -511 -263 -511 -511" />
    <glyph glyph-name="X.ss02" 
d="M0 680c0 -423 350 -680 680 -680M509 680c0 -107 86 -170 170 -170M339 680c0 -211 175 -340 340 -340M169 680c0 -318 263 -511 511 -511" />
    <glyph glyph-name="X.ss03" 
d="M0 0c423 0 680 350 680 680M0 509c107 0 170 86 170 170M0 339c211 0 340 175 340 340M0 169c318 0 511 263 511 511" />
    <glyph glyph-name="Y" unicode="Y" 
d="M680 0c0 423 -350 680 -680 680M340 0c0 215 -170 340 -339 340" />
    <glyph glyph-name="Y.ss01" 
d="M680 680c-423 0 -680 -350 -680 -680M680 340c-215 0 -340 -170 -340 -339" />
    <glyph glyph-name="Y.ss02" 
d="M0.339844 680c0 -422.788 349.825 -679.66 679.66 -679.66M340.17 680c0 -214.893 169.915 -339.83 338.831 -339.83" />
    <glyph glyph-name="Y.ss03" 
d="M0 0c423 0 680 350 680 680M0 340c215 0 340 170 340 339" />
    <glyph glyph-name="Z" unicode="Z" 
d="M340 0c0 215 -170 340 -340 340" />
    <glyph glyph-name="Z.ss01" 
d="M680 340c-215 0 -340 -170 -340 -340" />
    <glyph glyph-name="Z.ss02" 
d="M340 680c0 -215 170 -340 340 -340" />
    <glyph glyph-name="Z.ss03" 
d="M0 340c215 0 340 170 340 340" />
    <glyph glyph-name="a" unicode="a" horiz-adv-x="555" 
d="M555 0l-555 555" />
    <glyph glyph-name="a.ss01" horiz-adv-x="548" 
d="M548 555l-555 -555" />
    <glyph glyph-name="b" unicode="b" horiz-adv-x="555" 
d="M555 0v555h-555" />
    <glyph glyph-name="b.ss01" horiz-adv-x="555" 
d="M555 555h-555v-555" />
    <glyph glyph-name="b.ss02" horiz-adv-x="555" 
d="M0 555v-555h555" />
    <glyph glyph-name="b.ss03" horiz-adv-x="555" 
d="M0 0h555v555" />
    <glyph glyph-name="c" unicode="c" horiz-adv-x="555" 
d="M555 0l-555 555M277 0l-277 277M555 277l-278 278" />
    <glyph glyph-name="c.ss01" horiz-adv-x="555" 
d="M555 555l-555 -555M555 277l-277 -277M278 555l-278 -278" />
    <glyph glyph-name="d" unicode="d" horiz-adv-x="555" 
d="M555 0v555h-555M277 0v277h-277" />
    <glyph glyph-name="d.ss01" horiz-adv-x="555" 
d="M555 555h-555v-555M555 277h-277v-277" />
    <glyph glyph-name="d.ss02" horiz-adv-x="555" 
d="M0 555v-555h555M278 555v-277h277" />
    <glyph glyph-name="d.ss03" horiz-adv-x="555" 
d="M0 0h555v555M0 278h277v277" />
    <glyph glyph-name="e" unicode="e" horiz-adv-x="555" 
d="M555 0l-555 555M139 0l-139 139M277 0l-277 277M416 0l-416 416M555 139l-416 416M555 277l-278 278M555 416l-139 139" />
    <glyph glyph-name="e.ss01" horiz-adv-x="555" 
d="M555 555l-555 -555M555 139l-139 -139M555 277l-277 -277M555 416l-416 -416M416 555l-416 -416M278 555l-278 -278M139 555l-139 -139" />
    <glyph glyph-name="f" unicode="f" horiz-adv-x="555" 
d="M555 0v555h-555M139 0v139h-139M277 0v277h-277M416 0v416h-416" />
    <glyph glyph-name="f.ss01" horiz-adv-x="555" 
d="M555 555h-555v-555M555 139h-139v-139M555 277h-277v-277M555 416h-416v-416" />
    <glyph glyph-name="f.ss02" horiz-adv-x="555" 
d="M0 555v-555h555M416 555v-139h139M278 555v-277h277M139 555v-416h416" />
    <glyph glyph-name="f.ss03" horiz-adv-x="555" 
d="M0 0h555v555M0 416h139v139M0 278h277v277M0 139h416v416" />
    <glyph glyph-name="g" unicode="g" horiz-adv-x="555" 
d="M277 0l278 277l-278 278M0 0l277 277l-277 278" />
    <glyph glyph-name="g.ss01" horiz-adv-x="555" 
d="M555 277l-277 278l-278 -278M555 0l-277 277l-278 -277" />
    <glyph glyph-name="g.ss02" horiz-adv-x="555" 
d="M278 555l-278 -277l278 -278M555 555l-277 -277l277 -278" />
    <glyph glyph-name="g.ss03" horiz-adv-x="555" 
d="M0 278l277 -278l278 278M0 555l277 -277l278 277" />
    <glyph glyph-name="h" unicode="h" horiz-adv-x="555" 
d="M277 555l-277 -278l277 -277l278 277l-277 277" />
    <glyph glyph-name="h.ss01" horiz-adv-x="555" 
d="M555 555l-555 -555M0 555l555 -555" />
    <glyph glyph-name="i" unicode="i" horiz-adv-x="555" 
d="M277 0l278 277l-278 278M0 416l139 -139l-139 -138M0 0l277 277l-277 278M139 0l277 277l-277 278M416 0l139 139M555 416l-139 139" />
    <glyph glyph-name="i.ss01" horiz-adv-x="555" 
d="M555 277l-277 278l-278 -278M139 0l139 139l138 -139M555 0l-277 277l-278 -277M555 139l-277 277l-278 -277M555 416l-139 139M139 555l-139 -139" />
    <glyph glyph-name="i.ss02" horiz-adv-x="555" 
d="M278 555l-278 -277l278 -278M555 139l-139 139l139 138M555 555l-277 -277l277 -278M416 555l-277 -277l277 -278M139 555l-139 -139M0 139l139 -139" />
    <glyph glyph-name="i.ss03" horiz-adv-x="555" 
d="M0 278l277 -278l278 278M416 555l-139 -139l-138 139M0 555l277 -277l278 277M0 416l277 -277l278 277M0 139l139 -139M416 0l139 139" />
    <glyph glyph-name="j" unicode="j" horiz-adv-x="555" 
d="M277 555l-277 -278l277 -277l278 277l-277 277M139 0l-139 139M416 0l139 139M0 416l139 139M278 415l138 -138l-139 -138l-138 138l138 139M555 416l-139 139" />
    <glyph glyph-name="j.ss01" horiz-adv-x="555" 
d="M555 555l-555 -555M420 0l-142 142l-143 -142M0 135l142 143l-142 142M0 555l555 -555M135 555l143 -142l142 142M555 135l-142 143l142 142" />
    <glyph glyph-name="k" unicode="k" horiz-adv-x="555" 
d="M555 0c-139 0 -278 105 -278 277c0 173 139 278 278 278M0 0c139 0 277 105 277 277c0 173 -138 278 -277 278" />
    <glyph glyph-name="k.ss01" horiz-adv-x="555" 
d="M555 555c0 -139 -105 -278 -277 -278c-173 0 -278 139 -278 278M555 0c0 139 -105 277 -277 277c-173 0 -278 -138 -278 -277" />
    <glyph glyph-name="l" unicode="l" horiz-adv-x="555" 
d="M276 555c-137 0 -276 -105 -276 -278c0 -172 139 -277 277 -277c139 0 278 105 278 277c0 173 -139 278 -277 278" />
    <glyph glyph-name="m" unicode="m" horiz-adv-x="555" 
d="M277 0c139 0 278 105 278 277c0 173 -139 278 -278 278M0 0c139 0 277 105 277 277c0 173 -138 278 -277 278" />
    <glyph glyph-name="m.ss01" horiz-adv-x="555" 
d="M555 277c0 139 -105 278 -277 278c-173 0 -278 -139 -278 -278M555 0c0 139 -105 277 -277 277c-173 0 -278 -138 -278 -277" />
    <glyph glyph-name="m.ss02" horiz-adv-x="555" 
d="M278 555c-139 0 -278 -105 -278 -277c0 -173 139 -278 278 -278M555 555c-139 0 -277 -105 -277 -277c0 -173 138 -278 277 -278" />
    <glyph glyph-name="m.ss03" horiz-adv-x="555" 
d="M0 278c0 -139 105 -278 277 -278c173 0 278 139 278 278M0 555c0 -139 105 -277 277 -277c173 0 278 138 278 277" />
    <glyph glyph-name="n" unicode="n" horiz-adv-x="555" 
d="M555 0c0 139 -105 277 -278 277c-172 0 -277 -138 -277 -277c139 0 277 105 277 277c0 173 -138 278 -277 278" />
    <glyph glyph-name="n.ss01" horiz-adv-x="555" 
d="M555 555c-139 0 -277 -105 -277 -278c0 -172 138 -277 277 -277c0 139 -105 277 -277 277c-173 0 -278 -138 -278 -277" />
    <glyph glyph-name="n.ss02" horiz-adv-x="555" 
d="M0 555c0 -139 105 -277 278 -277c172 0 277 138 277 277c-139 0 -277 -105 -277 -277c0 -173 138 -278 277 -278" />
    <glyph glyph-name="n.ss03" horiz-adv-x="555" 
d="M0 0c139 0 277 105 277 278c0 172 -138 277 -277 277c0 -139 105 -277 277 -277c173 0 278 138 278 277" />
    <glyph glyph-name="o" unicode="o" horiz-adv-x="555" 
d="M555 0c-139 0 -278 105 -278 277c0 173 139 278 278 278M0 416c68 0 141 -51 141 -139c0 -87 -73 -138 -141 -138M0 0c139 0 277 105 277 277c0 173 -138 278 -277 278M555 416c-68 0 -141 -51 -141 -139c0 -87 73 -138 141 -138" />
    <glyph glyph-name="o.ss01" horiz-adv-x="555" 
d="M555 555c0 -139 -105 -278 -277 -278c-173 0 -278 139 -278 278M139 0c0 68 51 141 139 141c87 0 138 -73 138 -141M555 0c0 139 -105 277 -277 277c-173 0 -278 -138 -278 -277M139 555c0 -68 51 -141 139 -141c87 0 138 73 138 141" />
    <glyph glyph-name="p" unicode="p" horiz-adv-x="555" 
d="M276 0c140 0 279 105 279 276c0 174 -139 279 -279 279M0 416c68 0 142 -51 142 -140c0 -86 -74 -137 -142 -137M0 0c139 0 276 105 276 276c0 174 -137 279 -276 279M276 416c70 0 142 -51 142 -140c0 -86 -72 -137 -142 -137" />
    <glyph glyph-name="p.ss01" horiz-adv-x="555" 
d="M555 276c0 140 -105 279 -276 279c-174 0 -279 -139 -279 -279M139 0c0 68 51 142 140 142c86 0 137 -74 137 -142M555 0c0 139 -105 276 -276 276c-174 0 -279 -137 -279 -276M139 276c0 70 51 142 140 142c86 0 137 -72 137 -142" />
    <glyph glyph-name="p.ss02" horiz-adv-x="555" 
d="M279 555c-140 0 -279 -105 -279 -276c0 -174 139 -279 279 -279M555 139c-68 0 -142 51 -142 140c0 86 74 137 142 137M555 555c-139 0 -276 -105 -276 -276c0 -174 137 -279 276 -279M279 139c-70 0 -142 51 -142 140c0 86 72 137 142 137" />
    <glyph glyph-name="p.ss03" horiz-adv-x="555" 
d="M0 279c0 -140 105 -279 276 -279c174 0 279 139 279 279M416 555c0 -68 -51 -142 -140 -142c-86 0 -137 74 -137 142M0 555c0 -139 105 -276 276 -276c174 0 279 137 279 276M416 279c0 -70 -51 -142 -140 -142c-86 0 -137 72 -137 142" />
    <glyph glyph-name="period" unicode="." 
d="M-40 508c0 -22 18 -39 40 -39c23 0 40 18 40 40c0 23 -17 40 -40 40c-22 0 -40 -17 -40 -40M-1 40c-22 0 -39 -17 -39 -40c0 -22 18 -40 40 -40c23 0 39 18 39 40c0 23 -16 40 -39 40M169 40c-23 0 -39 -17 -39 -40c0 -22 17 -40 40 -40c22 0 38 18 38 40
c0 23 -16 40 -38 40M-40 170c0 -23 18 -39 40 -39c23 0 40 17 40 40c0 22 -17 38 -40 38c-22 0 -40 -16 -40 -38M337 40c-23 0 -40 -17 -40 -40c0 -22 18 -40 41 -40c22 0 39 18 39 40c0 23 -17 40 -39 40M-40 338c0 -23 18 -40 40 -40c23 0 40 18 40 41
c0 22 -17 39 -40 39c-22 0 -40 -17 -40 -39M507 40c-22 0 -39 -17 -39 -40c0 -22 18 -40 40 -40c23 0 40 18 40 40c0 23 -17 40 -40 40M679 40c-23 0 -39 -17 -39 -40c0 -22 17 -40 40 -40c22 0 38 18 38 40c0 23 -16 40 -38 40M-1 719c-22 0 -39 -17 -39 -39
c0 -23 18 -40 40 -40c23 0 39 17 39 40c0 22 -16 39 -39 39M169 719c-23 0 -39 -17 -39 -39c0 -23 17 -40 40 -40c22 0 38 17 38 40c0 22 -16 39 -38 39M640 170c0 -23 17 -39 40 -39c22 0 39 17 39 40c0 22 -17 38 -39 38c-23 0 -40 -16 -40 -38M337 719
c-23 0 -40 -17 -40 -39c0 -23 18 -40 41 -40c22 0 39 17 39 40c0 22 -17 39 -39 39M640 338c0 -23 17 -40 40 -40c22 0 39 18 39 41c0 22 -17 39 -39 39c-23 0 -40 -17 -40 -39M507 719c-22 0 -39 -17 -39 -39c0 -23 18 -40 40 -40c23 0 40 17 40 40c0 22 -17 39 -40 39z
M640 508c0 -22 17 -39 40 -39c22 0 39 18 39 40c0 23 -17 40 -39 40c-23 0 -40 -17 -40 -40M679 719c-23 0 -39 -17 -39 -39c0 -23 17 -40 40 -40c22 0 38 17 38 40c0 22 -16 39 -38 39" />
    <glyph glyph-name="q" unicode="q" horiz-adv-x="555" 
d="M276 555c-137 0 -276 -105 -276 -278c0 -172 139 -277 277 -277c139 0 278 105 278 277c0 173 -139 278 -277 278M278 416c68 0 140 -51 140 -139c0 -87 -72 -138 -141 -138c-68 0 -140 51 -140 138c0 88 72 139 139 139" />
    <glyph glyph-name="r" unicode="r" horiz-adv-x="555" 
d="M555 0c0 139 -105 277 -278 277c0 173 -138 278 -277 278M141 0c0 88 -73 139 -141 139M416 0c0 68 -51 141 -139 141c-87 0 -136 68 -136 136c0 88 -73 139 -141 139" />
    <glyph glyph-name="r.ss01" horiz-adv-x="555" 
d="M555 555c-139 0 -277 -105 -277 -278c-173 0 -278 -138 -278 -277M555 141c-88 0 -139 -73 -139 -141M555 416c-68 0 -141 -51 -141 -139c0 -87 -68 -136 -136 -136c-88 0 -139 -73 -139 -141" />
    <glyph glyph-name="r.ss02" horiz-adv-x="555" 
d="M0 555c0 -139 105 -277 278 -277c0 -173 138 -278 277 -278M414 555c0 -88 73 -139 141 -139M139 555c0 -68 51 -141 139 -141c87 0 136 -68 136 -136c0 -88 73 -139 141 -139" />
    <glyph glyph-name="r.ss03" horiz-adv-x="555" 
d="M0 0c139 0 277 105 277 278c173 0 278 138 278 277M0 414c88 0 139 73 139 141M0 139c68 0 141 51 141 139c0 87 68 136 136 136c88 0 139 73 139 141" />
    <glyph glyph-name="s" unicode="s" horiz-adv-x="555" 
d="M0 0l555 277l-555 278" />
    <glyph glyph-name="s.ss01" horiz-adv-x="555" 
d="M555 0l-277 555l-278 -555" />
    <glyph glyph-name="s.ss02" horiz-adv-x="555" 
d="M555 555l-555 -277l555 -278" />
    <glyph glyph-name="s.ss03" horiz-adv-x="555" 
d="M0 555l277 -555l278 555" />
    <glyph glyph-name="space" unicode=" " 
 />
    <glyph glyph-name="t" unicode="t" horiz-adv-x="555" 
d="M0 0c139 0 555 2 555 277c0 276 -416 278 -555 278" />
    <glyph glyph-name="t.ss01" horiz-adv-x="555" 
d="M555 0c0 139 -2 555 -277 555c-276 0 -278 -416 -278 -555" />
    <glyph glyph-name="t.ss02" horiz-adv-x="555" 
d="M555 555c-139 0 -555 -2 -555 -277c0 -276 416 -278 555 -278" />
    <glyph glyph-name="t.ss03" horiz-adv-x="555" 
d="M0 555c0 -139 2 -555 277 -555c276 0 278 416 278 555" />
    <glyph glyph-name="u" unicode="u" horiz-adv-x="555" 
d="M555 0v555M139 0v555M277 0v555M416 0v555" />
    <glyph glyph-name="u.ss01" horiz-adv-x="555" 
d="M0 555v-555M416 555v-555M278 555v-555M139 555v-555" />
    <glyph glyph-name="u.ss02" horiz-adv-x="555" 
d="M0 139h555M0 555h555M0 417h555M0 278h555" />
    <glyph glyph-name="u.ss03" horiz-adv-x="555" 
d="M0 0h555M0 416h555M0 278h555M0 139h555" />
    <glyph glyph-name="uni00A0" unicode="&#xa0;" horiz-adv-x="555" 
 />
    <glyph glyph-name="v" unicode="v" horiz-adv-x="555" 
d="M555 0v555M277 0v555" />
    <glyph glyph-name="v.ss01" horiz-adv-x="555" 
d="M278 0v555M0 0v555" />
    <glyph glyph-name="v.ss02" horiz-adv-x="555" 
d="M0 277h555M0 555h555" />
    <glyph glyph-name="v.ss03" horiz-adv-x="561" 
d="M0 0h555M0 278h555" />
    <glyph glyph-name="w" unicode="w" horiz-adv-x="555" 
d="M277 0v555h-1" />
    <glyph glyph-name="w.ss01" horiz-adv-x="555" 
d="M0 281h555v1" />
    <glyph glyph-name="x" unicode="x" horiz-adv-x="555" 
d="M555 0c0 345 -286 555 -555 555M139 0c0 88 -70 139 -138 139M278 0c0 172 -142 277 -277 277M417 0c0 259 -214 417 -417 417" />
    <glyph glyph-name="x.ss01" horiz-adv-x="555" 
d="M555 555c-345 0 -555 -286 -555 -555M555 139c-88 0 -139 -70 -139 -138M555 278c-172 0 -277 -142 -277 -277M555 417c-259 0 -417 -214 -417 -417" />
    <glyph glyph-name="x.ss02" horiz-adv-x="555" 
d="M0 555c0 -345 286 -555 555 -555M416 555c0 -88 70 -139 138 -139M277 555c0 -172 142 -277 277 -277M138 555c0 -259 214 -417 417 -417" />
    <glyph glyph-name="x.ss03" horiz-adv-x="555" 
d="M0 0c345 0 555 286 555 555M0 416c88 0 139 70 139 138M0 277c172 0 277 142 277 277M0 138c259 0 417 214 417 417" />
    <glyph glyph-name="y" unicode="y" horiz-adv-x="555" 
d="M555 0c0 344 -285 555 -555 555M278 0c0 176 -140 278 -278 278" />
    <glyph glyph-name="y.ss01" horiz-adv-x="555" 
d="M555 555c-344 0 -555 -285 -555 -555M555 278c-176 0 -278 -140 -278 -278" />
    <glyph glyph-name="y.ss02" horiz-adv-x="555" 
d="M0 555c0 -344 285 -555 555 -555M277 555c0 -176 140 -278 278 -278" />
    <glyph glyph-name="y.ss03" horiz-adv-x="555" 
d="M0 0c344 0 555 285 555 555M0 277c176 0 278 140 278 278" />
    <glyph glyph-name="z" unicode="z" horiz-adv-x="555" 
d="M278 0c0 176 -140 278 -278 278" />
    <glyph glyph-name="z.ss01" horiz-adv-x="555" 
d="M555 278c-176 0 -278 -140 -278 -278" />
    <glyph glyph-name="z.ss02" horiz-adv-x="555" 
d="M277 555c0 -176 140 -278 278 -278" />
    <glyph glyph-name="z.ss03" horiz-adv-x="555" 
d="M0 277c176 0 278 140 278 278" />
  </font>
</defs>
</svg>
